
<svg version="1.0" xmlns="http://www.w3.org/2000/svg"
 viewBox="0 0 128 128"
 preserveAspectRatio="xMidYMid meet">

<path d="M2046 3393 c-2 -10 -58 -262 -122 -560 l-118 -543 29 -30 29 -30 183
0 c133 0 183 -3 183 -12 0 -12 -127 -599 -136 -630 -5 -17 7 -18 145 -18 83 0
151 2 151 5 0 12 103 480 106 484 9 10 14 -13 45 -191 l32 -187 41 30 c157
113 192 146 259 244 37 54 67 94 67 88 0 -10 -82 -391 -97 -451 l-5 -23 148 3
149 3 122 555 c67 305 124 570 128 588 l6 32 -153 0 -153 -1 -165 -239 c-91
-131 -168 -239 -171 -240 -4 0 -21 76 -40 168 l-33 169 79 359 c43 197 80 364
82 370 2 6 -8 25 -22 43 l-27 31 -368 0 c-343 0 -369 -1 -374 -17z m414 -425
l-47 -213 -107 -3 c-85 -2 -107 0 -104 10 3 7 25 104 49 216 l44 202 106 0
105 0 -46 -212z m-181 -336 l33 -42 -13 -65 -13 -65 -73 0 c-40 0 -73 2 -73 4
0 9 51 241 55 254 5 14 14 5 84 -86z"/>
</svg>
